<svg xmlns="http://www.w3.org/2000/svg" version="1.1" xmlns:xlink="http://www.w3.org/1999/xlink" xmlns:svgjs="http://svgjs.dev/svgjs" width="1500" height="1500" viewBox="0 0 1500 1500"><g transform="matrix(1,0,0,1,-0.323615160350073,-0.3236151603499593)"><svg viewBox="0 0 343 343" data-background-color="#ffffff" preserveAspectRatio="xMidYMid meet" height="1500" width="1500" xmlns="http://www.w3.org/2000/svg" xmlns:xlink="http://www.w3.org/1999/xlink"><g id="tight-bounds" transform="matrix(1,0,0,1,0.0740000000000407,0.07400000000001228)"><svg viewBox="0 0 342.85155851775386 342.85155851775386" height="342.85155851775386" width="342.85155851775386"><g><svg></svg></g><g><svg viewBox="0 0 342.85155851775386 342.85155851775386" height="342.85155851775386" width="342.85155851775386"><g><path d="M0 171.426c0-94.676 76.75-171.426 171.426-171.426 94.676 0 171.426 76.75 171.426 171.426 0 94.676-76.75 171.426-171.426 171.426-94.676 0-171.426-76.75-171.426-171.426zM171.426 340.678c93.475 0 169.252-75.777 169.252-169.252 0-93.475-75.777-169.252-169.252-169.253-93.475 0-169.252 75.777-169.253 169.253 0 93.475 75.777 169.252 169.253 169.252z" data-fill-palette-color="tertiary" fill="#49a078" stroke="transparent"></path><ellipse rx="164.56874808852186" ry="164.56874808852186" cx="171.42577925887693" cy="171.42577925887693" fill="#49a078" stroke="transparent" stroke-width="0" fill-opacity="1" data-fill-palette-color="tertiary"></ellipse></g><g transform="matrix(1,0,0,1,64.84655864529837,116.81278821931319)"><svg viewBox="0 0 213.1584412271571 109.22598207912748" height="109.22598207912748" width="213.1584412271571"><g><svg viewBox="0 0 213.1584412271571 109.22598207912748" height="109.22598207912748" width="213.1584412271571"><g><svg viewBox="0 0 213.15844122715714 109.22598207912749" height="109.22598207912748" width="213.1584412271571"><g transform="matrix(1,0,0,1,0,65.75981124434122)"><svg viewBox="0 0 213.15844122715714 43.46617083478627" height="43.46617083478627" width="213.15844122715714"><g id="textblocktransform"><svg viewBox="0 0 213.15844122715714 43.46617083478627" height="43.46617083478627" width="213.15844122715714" id="textblock"><g><svg viewBox="0 0 213.15844122715714 24.100557238629055" height="24.100557238629055" width="213.15844122715714"><g transform="matrix(1,0,0,1,0,0)"><svg width="213.15844122715714" viewBox="2.7 -32.75 295.82 33.45" height="24.100557238629055" data-palette-color="#ffffff"><path d="M26.65-27.05L26.65-27.05 26.65-27.05Q26.65-26.4 26.23-25.88 25.8-25.35 25.25-25.1L25.25-25.1Q24-26 22.23-26.8 20.45-27.6 17.65-27.6L17.65-27.6Q14.6-27.6 12.18-26.2 9.75-24.8 8.33-22.03 6.9-19.25 6.9-15.15L6.9-15.15Q6.9-9 9.93-5.9 12.95-2.8 17.8-2.8L17.8-2.8Q20.4-2.8 22.35-3.55 24.3-4.3 25.55-5.25L25.55-5.25Q26.05-5.05 26.5-4.53 26.95-4 26.95-3.3L26.95-3.3Q26.95-2.8 26.68-2.33 26.4-1.85 25.75-1.4L25.75-1.4Q24.6-0.6 22.6 0.03 20.6 0.65 17.5 0.65L17.5 0.65Q13.35 0.65 9.98-1.13 6.6-2.9 4.65-6.4 2.7-9.9 2.7-15.15L2.7-15.15Q2.7-20.4 4.73-23.95 6.75-27.5 10.08-29.28 13.4-31.05 17.35-31.05L17.35-31.05Q20.1-31.05 22.2-30.45 24.3-29.85 25.48-28.93 26.65-28 26.65-27.05ZM33.55-1.55L33.55-13.2 37.55-12.6 37.55-0.1Q37.3 0 36.8 0.13 36.3 0.25 35.7 0.25L35.7 0.25Q34.65 0.25 34.1-0.18 33.55-0.6 33.55-1.55L33.55-1.55ZM37.55-30.95L37.55-10.7 33.55-11.25 33.55-32.4Q33.8-32.5 34.32-32.63 34.85-32.75 35.4-32.75L35.4-32.75Q36.5-32.75 37.02-32.33 37.55-31.9 37.55-30.95L37.55-30.95ZM63.7-11.35L46.9-9 46.7-12.15 61.8-14.2Q61.6-16.95 59.9-18.73 58.2-20.5 55.2-20.5L55.2-20.5Q52.1-20.5 50.07-18.28 48.05-16.05 48.05-11.9L48.05-11.9 48.05-10.8Q48.4-6.8 50.67-4.73 52.95-2.65 56.9-2.65L56.9-2.65Q59-2.65 60.7-3.35 62.4-4.05 63.4-4.85L63.4-4.85Q63.95-4.5 64.27-4.03 64.6-3.55 64.6-2.95L64.6-2.95Q64.6-2 63.52-1.18 62.45-0.35 60.67 0.15 58.9 0.65 56.7 0.65L56.7 0.65Q52.85 0.65 50.02-0.75 47.2-2.15 45.67-4.93 44.15-7.7 44.15-11.7L44.15-11.7Q44.15-14.55 44.97-16.78 45.8-19 47.27-20.55 48.75-22.1 50.8-22.93 52.85-23.75 55.25-23.75L55.25-23.75Q58.3-23.75 60.62-22.45 62.95-21.15 64.27-18.82 65.6-16.5 65.6-13.5L65.6-13.5Q65.6-12.4 65.1-11.93 64.6-11.45 63.7-11.35L63.7-11.35ZM79.64-2.6L79.64-2.6 79.64-2.6Q81.74-2.6 83.12-3.03 84.49-3.45 85.09-3.85L85.09-3.85 85.09-11.1 78.89-10.45Q76.29-10.25 75.04-9.3 73.79-8.35 73.79-6.55L73.79-6.55Q73.79-4.7 75.27-3.65 76.74-2.6 79.64-2.6ZM79.59-23.75L79.59-23.75 79.59-23.75Q83.94-23.75 86.49-21.8 89.04-19.85 89.04-15.65L89.04-15.65 89.04-3.8Q89.04-2.7 88.62-2.13 88.19-1.55 87.34-1.05L87.34-1.05Q86.14-0.4 84.14 0.15 82.14 0.7 79.64 0.7L79.64 0.7Q74.94 0.7 72.37-1.15 69.79-3 69.79-6.5L69.79-6.5Q69.79-9.75 71.97-11.48 74.14-13.2 77.99-13.55L77.99-13.55 85.09-14.25 85.09-15.65Q85.09-18.15 83.59-19.3 82.09-20.45 79.54-20.45L79.54-20.45Q77.49-20.45 75.62-19.85 73.74-19.25 72.29-18.5L72.29-18.5Q71.89-18.85 71.57-19.33 71.24-19.8 71.24-20.3L71.24-20.3Q71.24-21.6 72.69-22.3L72.69-22.3Q74.04-23 75.82-23.38 77.59-23.75 79.59-23.75ZM116.34-15.25L116.34-15.25 116.34-10.15 112.34-10.15 112.34-15.05Q112.34-17.85 110.77-19.15 109.19-20.45 106.54-20.45L106.54-20.45Q104.54-20.45 102.99-19.95 101.44-19.45 100.34-18.8L100.34-18.8 100.34-10.15 96.34-10.15 96.34-18.6Q96.34-19.65 96.77-20.33 97.19-21 98.24-21.65L98.24-21.65Q99.54-22.4 101.69-23.08 103.84-23.75 106.54-23.75L106.54-23.75Q111.09-23.75 113.72-21.68 116.34-19.6 116.34-15.25ZM96.34-1.55L96.34-12.9 100.34-12.9 100.34-0.1Q100.09 0 99.59 0.13 99.09 0.25 98.49 0.25L98.49 0.25Q97.44 0.25 96.89-0.18 96.34-0.6 96.34-1.55L96.34-1.55ZM112.34-1.55L112.34-12.9 116.34-12.9 116.34-0.1Q116.09 0 115.57 0.13 115.04 0.25 114.49 0.25L114.49 0.25Q113.39 0.25 112.87-0.18 112.34-0.6 112.34-1.55L112.34-1.55ZM146.74-27.05L146.74-27.05 146.74-27.05Q146.74-26.4 146.31-25.88 145.89-25.35 145.34-25.1L145.34-25.1Q144.09-26 142.31-26.8 140.54-27.6 137.74-27.6L137.74-27.6Q134.69-27.6 132.26-26.2 129.84-24.8 128.41-22.03 126.99-19.25 126.99-15.15L126.99-15.15Q126.99-9 130.01-5.9 133.04-2.8 137.89-2.8L137.89-2.8Q140.49-2.8 142.44-3.55 144.39-4.3 145.64-5.25L145.64-5.25Q146.14-5.05 146.59-4.53 147.04-4 147.04-3.3L147.04-3.3Q147.04-2.8 146.76-2.33 146.49-1.85 145.84-1.4L145.84-1.4Q144.69-0.6 142.69 0.03 140.69 0.65 137.59 0.65L137.59 0.65Q133.44 0.65 130.06-1.13 126.69-2.9 124.74-6.4 122.79-9.9 122.79-15.15L122.79-15.15Q122.79-20.4 124.81-23.95 126.84-27.5 130.16-29.28 133.49-31.05 137.44-31.05L137.44-31.05Q140.19-31.05 142.29-30.45 144.39-29.85 145.56-28.93 146.74-28 146.74-27.05ZM174.69-11.55L174.69-11.55 174.69-11.55Q174.69-7.85 173.29-5.1 171.89-2.35 169.34-0.85 166.79 0.65 163.34 0.65L163.34 0.65Q159.89 0.65 157.31-0.85 154.74-2.35 153.34-5.1 151.94-7.85 151.94-11.55L151.94-11.55Q151.94-15.3 153.36-18.03 154.79-20.75 157.36-22.25 159.94-23.75 163.34-23.75L163.34-23.75Q166.74-23.75 169.29-22.25 171.84-20.75 173.26-18.03 174.69-15.3 174.69-11.55ZM163.34-20.45L163.34-20.45 163.34-20.45Q159.99-20.45 158.01-18.07 156.04-15.7 156.04-11.55L156.04-11.55Q156.04-7.35 157.96-5 159.89-2.65 163.34-2.65L163.34-2.65Q166.74-2.65 168.66-5.03 170.59-7.4 170.59-11.55L170.59-11.55Q170.59-15.7 168.66-18.07 166.74-20.45 163.34-20.45ZM200.88-15.25L200.88-15.25 200.88-10.15 196.88-10.15 196.88-15.05Q196.88-17.85 195.31-19.15 193.73-20.45 191.08-20.45L191.08-20.45Q189.08-20.45 187.53-19.95 185.98-19.45 184.88-18.8L184.88-18.8 184.88-10.15 180.88-10.15 180.88-18.6Q180.88-19.65 181.31-20.33 181.73-21 182.78-21.65L182.78-21.65Q184.08-22.4 186.23-23.08 188.38-23.75 191.08-23.75L191.08-23.75Q195.63-23.75 198.26-21.68 200.88-19.6 200.88-15.25ZM180.88-1.55L180.88-12.9 184.88-12.9 184.88-0.1Q184.63 0 184.13 0.13 183.63 0.25 183.03 0.25L183.03 0.25Q181.98 0.25 181.43-0.18 180.88-0.6 180.88-1.55L180.88-1.55ZM196.88-1.55L196.88-12.9 200.88-12.9 200.88-0.1Q200.63 0 200.11 0.13 199.58 0.25 199.03 0.25L199.03 0.25Q197.93 0.25 197.41-0.18 196.88-0.6 196.88-1.55L196.88-1.55ZM228.38-15.25L228.38-15.25 228.38-10.15 224.38-10.15 224.38-15.05Q224.38-17.85 222.81-19.15 221.23-20.45 218.58-20.45L218.58-20.45Q216.58-20.45 215.03-19.95 213.48-19.45 212.38-18.8L212.38-18.8 212.38-10.15 208.38-10.15 208.38-18.6Q208.38-19.65 208.81-20.33 209.23-21 210.28-21.65L210.28-21.65Q211.58-22.4 213.73-23.08 215.88-23.75 218.58-23.75L218.58-23.75Q223.13-23.75 225.76-21.68 228.38-19.6 228.38-15.25ZM208.38-1.55L208.38-12.9 212.38-12.9 212.38-0.1Q212.13 0 211.63 0.13 211.13 0.25 210.53 0.25L210.53 0.25Q209.48 0.25 208.93-0.18 208.38-0.6 208.38-1.55L208.38-1.55ZM224.38-1.55L224.38-12.9 228.38-12.9 228.38-0.1Q228.13 0 227.61 0.13 227.08 0.25 226.53 0.25L226.53 0.25Q225.43 0.25 224.91-0.18 224.38-0.6 224.38-1.55L224.38-1.55ZM254.13-11.35L237.33-9 237.13-12.15 252.23-14.2Q252.03-16.95 250.33-18.73 248.63-20.5 245.63-20.5L245.63-20.5Q242.53-20.5 240.5-18.28 238.48-16.05 238.48-11.9L238.48-11.9 238.48-10.8Q238.83-6.8 241.1-4.73 243.38-2.65 247.33-2.65L247.33-2.65Q249.43-2.65 251.13-3.35 252.83-4.05 253.83-4.85L253.83-4.85Q254.38-4.5 254.7-4.03 255.03-3.55 255.03-2.95L255.03-2.95Q255.03-2 253.95-1.18 252.88-0.35 251.1 0.15 249.33 0.65 247.13 0.65L247.13 0.65Q243.28 0.65 240.45-0.75 237.63-2.15 236.1-4.93 234.58-7.7 234.58-11.7L234.58-11.7Q234.58-14.55 235.4-16.78 236.23-19 237.7-20.55 239.18-22.1 241.23-22.93 243.28-23.75 245.68-23.75L245.68-23.75Q248.73-23.75 251.05-22.45 253.38-21.15 254.7-18.82 256.03-16.5 256.03-13.5L256.03-13.5Q256.03-12.4 255.53-11.93 255.03-11.45 254.13-11.35L254.13-11.35ZM272.53-20.4L272.53-20.4 272.53-20.4Q269.13-20.4 266.88-18.1 264.63-15.8 264.63-11.5L264.63-11.5Q264.63-7.25 266.8-4.95 268.98-2.65 272.53-2.65L272.53-2.65Q274.63-2.65 276.03-3.23 277.43-3.8 278.53-4.55L278.53-4.55Q279.08-4.25 279.43-3.8 279.78-3.35 279.78-2.7L279.78-2.7Q279.78-1.3 277.7-0.33 275.63 0.65 272.53 0.65L272.53 0.65Q269.08 0.65 266.35-0.68 263.63-2 262.08-4.7 260.53-7.4 260.53-11.5L260.53-11.5Q260.53-15.55 262.13-18.28 263.73-21 266.45-22.38 269.18-23.75 272.43-23.75L272.43-23.75Q275.53-23.75 277.55-22.7 279.58-21.65 279.58-20.3L279.58-20.3Q279.58-19.7 279.23-19.25 278.88-18.8 278.33-18.55L278.33-18.55Q277.23-19.3 275.9-19.85 274.58-20.4 272.53-20.4ZM285.77-6.05L285.77-13.2 289.77-13.2 289.77-6.3Q289.77-4.3 290.92-3.48 292.07-2.65 294.07-2.65L294.07-2.65Q294.92-2.65 295.97-2.95 297.02-3.25 297.72-3.65L297.72-3.65Q298.02-3.35 298.27-2.9 298.52-2.45 298.52-1.85L298.52-1.85Q298.52-0.75 297.22-0.05 295.92 0.65 293.62 0.65L293.62 0.65Q290.12 0.65 287.95-0.9 285.77-2.45 285.77-6.05L285.77-6.05ZM296.92-19.3L287.82-19.3 287.82-22.6 297.97-22.6Q298.12-22.4 298.27-21.95 298.42-21.5 298.42-21L298.42-21Q298.42-20.2 298.02-19.75 297.62-19.3 296.92-19.3L296.92-19.3ZM289.77-28.35L289.77-11.7 285.77-11.7 285.77-29.8Q286.02-29.9 286.55-30.03 287.07-30.15 287.67-30.15L287.67-30.15Q288.72-30.15 289.25-29.73 289.77-29.3 289.77-28.35L289.77-28.35Z" opacity="1" transform="matrix(1,0,0,1,0,0)" fill="#ffffff" class="wordmark-text-0" data-fill-palette-color="quaternary" id="text-0"></path></svg></g></svg></g><g transform="matrix(1,0,0,1,0,29.790120389295648)"><svg viewBox="0 0 213.15844122715714 13.676050445490619" height="13.676050445490619" width="213.15844122715714"><g transform="matrix(1,0,0,1,0,0)"><svg width="213.15844122715714" viewBox="2.7 -33.5 532.99 34.2" height="13.676050445490619" data-palette-color="#ffffff"><path d="M26.65-27.05L26.65-27.05Q26.65-26.4 26.23-25.88 25.8-25.35 25.25-25.1L25.25-25.1Q24-26 22.23-26.8 20.45-27.6 17.65-27.6L17.65-27.6Q14.6-27.6 12.18-26.2 9.75-24.8 8.33-22.03 6.9-19.25 6.9-15.15L6.9-15.15Q6.9-9 9.93-5.9 12.95-2.8 17.8-2.8L17.8-2.8Q20.4-2.8 22.35-3.55 24.3-4.3 25.55-5.25L25.55-5.25Q26.05-5.05 26.5-4.53 26.95-4 26.95-3.3L26.95-3.3Q26.95-2.8 26.68-2.33 26.4-1.85 25.75-1.4L25.75-1.4Q24.6-0.6 22.6 0.03 20.6 0.65 17.5 0.65L17.5 0.65Q13.35 0.65 9.98-1.13 6.6-2.9 4.65-6.4 2.7-9.9 2.7-15.15L2.7-15.15Q2.7-20.4 4.73-23.95 6.75-27.5 10.08-29.28 13.4-31.05 17.35-31.05L17.35-31.05Q20.1-31.05 22.2-30.45 24.3-29.85 25.48-28.93 26.65-28 26.65-27.05ZM54.6-11.55L54.6-11.55Q54.6-7.85 53.2-5.1 51.8-2.35 49.25-0.85 46.7 0.65 43.25 0.65L43.25 0.65Q39.8 0.65 37.22-0.85 34.65-2.35 33.25-5.1 31.85-7.85 31.85-11.55L31.85-11.55Q31.85-15.3 33.27-18.03 34.7-20.75 37.27-22.25 39.85-23.75 43.25-23.75L43.25-23.75Q46.65-23.75 49.2-22.25 51.75-20.75 53.17-18.03 54.6-15.3 54.6-11.55ZM43.25-20.45L43.25-20.45Q39.9-20.45 37.92-18.07 35.95-15.7 35.95-11.55L35.95-11.55Q35.95-7.35 37.87-5 39.8-2.65 43.25-2.65L43.25-2.65Q46.65-2.65 48.57-5.03 50.5-7.4 50.5-11.55L50.5-11.55Q50.5-15.7 48.57-18.07 46.65-20.45 43.25-20.45ZM80.8-15.25L80.8-10.15 76.8-10.15 76.8-15.05Q76.8-17.85 75.22-19.15 73.65-20.45 71-20.45L71-20.45Q69-20.45 67.45-19.95 65.89-19.45 64.8-18.8L64.8-18.8 64.8-10.15 60.8-10.15 60.8-18.6Q60.8-19.65 61.22-20.33 61.65-21 62.7-21.65L62.7-21.65Q64-22.4 66.14-23.08 68.3-23.75 71-23.75L71-23.75Q75.55-23.75 78.17-21.68 80.8-19.6 80.8-15.25L80.8-15.25ZM60.8-12.9L64.8-12.9 64.8-0.1Q64.55 0 64.05 0.13 63.55 0.25 62.95 0.25L62.95 0.25Q61.9 0.25 61.34-0.18 60.8-0.6 60.8-1.55L60.8-1.55 60.8-12.9ZM76.8-12.9L80.8-12.9 80.8-0.1Q80.55 0 80.02 0.13 79.5 0.25 78.95 0.25L78.95 0.25Q77.84 0.25 77.32-0.18 76.8-0.6 76.8-1.55L76.8-1.55 76.8-12.9ZM88.34-13.2L92.34-13.2 92.34-6.3Q92.34-4.3 93.49-3.48 94.64-2.65 96.64-2.65L96.64-2.65Q97.49-2.65 98.54-2.95 99.59-3.25 100.29-3.65L100.29-3.65Q100.59-3.35 100.84-2.9 101.09-2.45 101.09-1.85L101.09-1.85Q101.09-0.75 99.79-0.05 98.49 0.65 96.19 0.65L96.19 0.65Q92.69 0.65 90.52-0.9 88.34-2.45 88.34-6.05L88.34-6.05 88.34-13.2ZM90.39-19.3L90.39-22.6 100.54-22.6Q100.69-22.4 100.84-21.95 100.99-21.5 100.99-21L100.99-21Q100.99-20.2 100.59-19.75 100.19-19.3 99.49-19.3L99.49-19.3 90.39-19.3ZM92.34-11.7L88.34-11.7 88.34-29.8Q88.59-29.9 89.12-30.03 89.64-30.15 90.24-30.15L90.24-30.15Q91.29-30.15 91.82-29.73 92.34-29.3 92.34-28.35L92.34-28.35 92.34-11.7ZM110.89-18.8L110.89-10.9 106.89-10.9 106.89-18.5Q106.89-19.65 107.32-20.33 107.74-21 108.74-21.65L108.74-21.65Q110.04-22.5 112.29-23.13 114.54-23.75 117.29-23.75L117.29-23.75Q121.29-23.75 121.29-21.75L121.29-21.75Q121.29-21.25 121.14-20.83 120.99-20.4 120.74-20.1L120.74-20.1Q120.24-20.2 119.44-20.3 118.64-20.4 117.84-20.4L117.84-20.4Q115.54-20.4 113.79-19.93 112.04-19.45 110.89-18.8L110.89-18.8ZM106.89-13.2L110.89-12.6 110.89-0.1Q110.64 0 110.14 0.13 109.64 0.25 109.04 0.25L109.04 0.25Q107.99 0.25 107.44-0.18 106.89-0.6 106.89-1.55L106.89-1.55 106.89-13.2ZM134.24-2.6L134.24-2.6Q136.34-2.6 137.71-3.03 139.09-3.45 139.69-3.85L139.69-3.85 139.69-11.1 133.49-10.45Q130.89-10.25 129.64-9.3 128.39-8.35 128.39-6.55L128.39-6.55Q128.39-4.7 129.86-3.65 131.34-2.6 134.24-2.6ZM134.19-23.75L134.19-23.75Q138.54-23.75 141.09-21.8 143.64-19.85 143.64-15.65L143.64-15.65 143.64-3.8Q143.64-2.7 143.21-2.13 142.79-1.55 141.94-1.05L141.94-1.05Q140.74-0.4 138.74 0.15 136.74 0.7 134.24 0.7L134.24 0.7Q129.54 0.7 126.96-1.15 124.39-3 124.39-6.5L124.39-6.5Q124.39-9.75 126.56-11.48 128.74-13.2 132.59-13.55L132.59-13.55 139.69-14.25 139.69-15.65Q139.69-18.15 138.19-19.3 136.69-20.45 134.14-20.45L134.14-20.45Q132.09-20.45 130.21-19.85 128.34-19.25 126.89-18.5L126.89-18.5Q126.49-18.85 126.16-19.33 125.84-19.8 125.84-20.3L125.84-20.3Q125.84-21.6 127.29-22.3L127.29-22.3Q128.64-23 130.41-23.38 132.19-23.75 134.19-23.75ZM150.99-13.2L154.99-13.2 154.99-6.3Q154.99-4.3 156.13-3.48 157.28-2.65 159.28-2.65L159.28-2.65Q160.13-2.65 161.19-2.95 162.24-3.25 162.94-3.65L162.94-3.65Q163.24-3.35 163.49-2.9 163.74-2.45 163.74-1.85L163.74-1.85Q163.74-0.75 162.44-0.05 161.13 0.65 158.84 0.65L158.84 0.65Q155.34 0.65 153.16-0.9 150.99-2.45 150.99-6.05L150.99-6.05 150.99-13.2ZM153.03-19.3L153.03-22.6 163.19-22.6Q163.34-22.4 163.49-21.95 163.63-21.5 163.63-21L163.63-21Q163.63-20.2 163.24-19.75 162.84-19.3 162.13-19.3L162.13-19.3 153.03-19.3ZM154.99-11.7L150.99-11.7 150.99-29.8Q151.24-29.9 151.76-30.03 152.28-30.15 152.88-30.15L152.88-30.15Q153.94-30.15 154.46-29.73 154.99-29.3 154.99-28.35L154.99-28.35 154.99-11.7ZM170.98-9L170.78-12.15 185.88-14.2Q185.68-16.95 183.98-18.73 182.28-20.5 179.28-20.5L179.28-20.5Q176.18-20.5 174.16-18.28 172.13-16.05 172.13-11.9L172.13-11.9 172.13-10.8Q172.48-6.8 174.76-4.73 177.03-2.65 180.98-2.65L180.98-2.65Q183.08-2.65 184.78-3.35 186.48-4.05 187.48-4.85L187.48-4.85Q188.03-4.5 188.36-4.03 188.68-3.55 188.68-2.95L188.68-2.95Q188.68-2 187.61-1.18 186.53-0.35 184.76 0.15 182.98 0.65 180.78 0.65L180.78 0.65Q176.93 0.65 174.11-0.75 171.28-2.15 169.76-4.93 168.23-7.7 168.23-11.7L168.23-11.7Q168.23-14.55 169.06-16.78 169.88-19 171.36-20.55 172.83-22.1 174.88-22.93 176.93-23.75 179.33-23.75L179.33-23.75Q182.38-23.75 184.71-22.45 187.03-21.15 188.36-18.82 189.68-16.5 189.68-13.5L189.68-13.5Q189.68-12.4 189.18-11.93 188.68-11.45 187.78-11.35L187.78-11.35 170.98-9ZM213.73-2.6L213.73-2.6Q215.83-2.6 217.2-3.03 218.58-3.45 219.18-3.85L219.18-3.85 219.18-11.1 212.98-10.45Q210.38-10.25 209.13-9.3 207.88-8.35 207.88-6.55L207.88-6.55Q207.88-4.7 209.35-3.65 210.83-2.6 213.73-2.6ZM213.68-23.75L213.68-23.75Q218.03-23.75 220.58-21.8 223.13-19.85 223.13-15.65L223.13-15.65 223.13-3.8Q223.13-2.7 222.7-2.13 222.28-1.55 221.43-1.05L221.43-1.05Q220.23-0.4 218.23 0.15 216.23 0.7 213.73 0.7L213.73 0.7Q209.03 0.7 206.45-1.15 203.88-3 203.88-6.5L203.88-6.5Q203.88-9.75 206.05-11.48 208.23-13.2 212.08-13.55L212.08-13.55 219.18-14.25 219.18-15.65Q219.18-18.15 217.68-19.3 216.18-20.45 213.63-20.45L213.63-20.45Q211.58-20.45 209.7-19.85 207.83-19.25 206.38-18.5L206.38-18.5Q205.98-18.85 205.65-19.33 205.33-19.8 205.33-20.3L205.33-20.3Q205.33-21.6 206.78-22.3L206.78-22.3Q208.13-23 209.9-23.38 211.68-23.75 213.68-23.75ZM243.77-18.55L243.77-21.8 254.37-21.8Q254.52-21.6 254.67-21.18 254.82-20.75 254.82-20.2L254.82-20.2Q254.82-19.4 254.42-18.98 254.02-18.55 253.27-18.55L253.27-18.55 243.77-18.55ZM244.47-24.95L244.47-19.1 240.52-19.1 240.52-25.15Q240.52-28.1 241.6-29.93 242.67-31.75 244.7-32.63 246.72-33.5 249.52-33.5L249.52-33.5Q252.37-33.5 254-32.75 255.62-32 255.62-30.9L255.62-30.9Q255.62-30.35 255.4-29.9 255.17-29.45 254.77-29.05L254.77-29.05Q253.87-29.55 252.52-29.88 251.17-30.2 249.92-30.2L249.92-30.2Q246.87-30.2 245.67-28.95 244.47-27.7 244.47-24.95L244.47-24.95ZM240.52-21.3L244.52-21.3 244.52-0.1Q244.27 0 243.77 0.13 243.27 0.25 242.67 0.25L242.67 0.25Q241.62 0.25 241.07-0.18 240.52-0.6 240.52-1.55L240.52-1.55 240.52-21.3ZM268.62-2.6L268.62-2.6Q270.72-2.6 272.1-3.03 273.47-3.45 274.07-3.85L274.07-3.85 274.07-11.1 267.87-10.45Q265.27-10.25 264.02-9.3 262.77-8.35 262.77-6.55L262.77-6.55Q262.77-4.7 264.25-3.65 265.72-2.6 268.62-2.6ZM268.57-23.75L268.57-23.75Q272.92-23.75 275.47-21.8 278.02-19.85 278.02-15.65L278.02-15.65 278.02-3.8Q278.02-2.7 277.6-2.13 277.17-1.55 276.32-1.05L276.32-1.05Q275.12-0.4 273.12 0.15 271.12 0.7 268.62 0.7L268.62 0.7Q263.92 0.7 261.35-1.15 258.77-3 258.77-6.5L258.77-6.5Q258.77-9.75 260.94-11.48 263.12-13.2 266.97-13.55L266.97-13.55 274.07-14.25 274.07-15.65Q274.07-18.15 272.57-19.3 271.07-20.45 268.52-20.45L268.52-20.45Q266.47-20.45 264.6-19.85 262.72-19.25 261.27-18.5L261.27-18.5Q260.87-18.85 260.55-19.33 260.22-19.8 260.22-20.3L260.22-20.3Q260.22-21.6 261.67-22.3L261.67-22.3Q263.02-23 264.8-23.38 266.57-23.75 268.57-23.75ZM292.27-13.05L293.02-13.4Q295.07-16.05 296.87-18.35 298.67-20.65 300.57-23.4L300.57-23.4Q300.77-23.45 300.87-23.45 300.97-23.45 301.12-23.45L301.12-23.45Q302.17-23.45 302.77-22.98 303.37-22.5 303.37-21.7L303.37-21.7Q303.37-21.15 303.14-20.65 302.92-20.15 302.42-19.5L302.42-19.5Q300.72-17.4 298.94-15.25 297.17-13.1 295.47-11.05L295.47-11.05 294.17-9.95Q292.32-7.5 290.37-4.88 288.42-2.25 286.62 0.25L286.62 0.25Q286.57 0.25 286.29 0.25 286.02 0.25 285.92 0.25L285.92 0.25Q284.77 0.25 284.19-0.25 283.62-0.75 283.62-1.5L283.62-1.5Q283.62-1.9 283.79-2.35 283.97-2.8 284.62-3.6L284.62-3.6Q286.42-6 288.42-8.33 290.42-10.65 292.27-13.05L292.27-13.05ZM294.72-12.95L295.62-12.35Q297.67-9.65 299.74-7.03 301.82-4.4 303.87-1.75L303.87-1.75Q303.77-0.8 303.22-0.25 302.67 0.3 301.77 0.3L301.77 0.3Q300.97 0.3 300.42-0.13 299.87-0.55 299.17-1.45L299.17-1.45Q297.67-3.55 295.99-5.9 294.32-8.25 292.82-10.3L292.82-10.3 291.67-11.35Q289.47-14 287.57-16.4 285.67-18.8 283.67-21.35L283.67-21.35Q283.87-22.35 284.42-22.9 284.97-23.45 285.77-23.45L285.77-23.45Q286.62-23.45 287.12-23.03 287.62-22.6 288.12-21.9L288.12-21.9Q289.62-19.9 291.27-17.53 292.92-15.15 294.72-12.95L294.72-12.95ZM309.06-30.4L309.06-30.4Q309.06-31.45 309.81-32.18 310.56-32.9 311.67-32.9L311.67-32.9Q312.81-32.9 313.52-32.18 314.22-31.45 314.22-30.4L314.22-30.4Q314.22-29.35 313.52-28.63 312.81-27.9 311.67-27.9L311.67-27.9Q310.56-27.9 309.81-28.63 309.06-29.35 309.06-30.4ZM309.67-13.2L313.67-13.2 313.67-0.1Q313.42 0 312.92 0.13 312.42 0.25 311.81 0.25L311.81 0.25Q310.77 0.25 310.22-0.18 309.67-0.6 309.67-1.55L309.67-1.55 309.67-13.2ZM313.67-11.25L309.67-11.25 309.67-23Q309.92-23.1 310.44-23.23 310.97-23.35 311.56-23.35L311.56-23.35Q312.62-23.35 313.14-22.93 313.67-22.5 313.67-21.5L313.67-21.5 313.67-11.25ZM341.46-15.25L341.46-10.15 337.46-10.15 337.46-15.05Q337.46-17.85 335.89-19.15 334.31-20.45 331.66-20.45L331.66-20.45Q329.66-20.45 328.11-19.95 326.56-19.45 325.46-18.8L325.46-18.8 325.46-10.15 321.46-10.15 321.46-18.6Q321.46-19.65 321.89-20.33 322.31-21 323.36-21.65L323.36-21.65Q324.66-22.4 326.81-23.08 328.96-23.75 331.66-23.75L331.66-23.75Q336.21-23.75 338.84-21.68 341.46-19.6 341.46-15.25L341.46-15.25ZM321.46-12.9L325.46-12.9 325.46-0.1Q325.21 0 324.71 0.13 324.21 0.25 323.61 0.25L323.61 0.25Q322.56 0.25 322.01-0.18 321.46-0.6 321.46-1.55L321.46-1.55 321.46-12.9ZM337.46-12.9L341.46-12.9 341.46-0.1Q341.21 0 340.69 0.13 340.16 0.25 339.61 0.25L339.61 0.25Q338.51 0.25 337.99-0.18 337.46-0.6 337.46-1.55L337.46-1.55 337.46-12.9ZM350.41-9L350.21-12.15 365.31-14.2Q365.11-16.95 363.41-18.73 361.71-20.5 358.71-20.5L358.71-20.5Q355.61-20.5 353.59-18.28 351.56-16.05 351.56-11.9L351.56-11.9 351.56-10.8Q351.91-6.8 354.19-4.73 356.46-2.65 360.41-2.65L360.41-2.65Q362.51-2.65 364.21-3.35 365.91-4.05 366.91-4.85L366.91-4.85Q367.46-4.5 367.79-4.03 368.11-3.55 368.11-2.95L368.11-2.95Q368.11-2 367.04-1.18 365.96-0.35 364.19 0.15 362.41 0.65 360.21 0.65L360.21 0.65Q356.36 0.65 353.54-0.75 350.71-2.15 349.19-4.93 347.66-7.7 347.66-11.7L347.66-11.7Q347.66-14.55 348.49-16.78 349.31-19 350.79-20.55 352.26-22.1 354.31-22.93 356.36-23.75 358.76-23.75L358.76-23.75Q361.81-23.75 364.14-22.45 366.46-21.15 367.79-18.82 369.11-16.5 369.11-13.5L369.11-13.5Q369.11-12.4 368.61-11.93 368.11-11.45 367.21-11.35L367.21-11.35 350.41-9ZM374.56-30.4L374.56-30.4Q374.56-31.45 375.31-32.18 376.06-32.9 377.16-32.9L377.16-32.9Q378.31-32.9 379.01-32.18 379.71-31.45 379.71-30.4L379.71-30.4Q379.71-29.35 379.01-28.63 378.31-27.9 377.16-27.9L377.16-27.9Q376.06-27.9 375.31-28.63 374.56-29.35 374.56-30.4ZM375.16-13.2L379.16-13.2 379.16-0.1Q378.91 0 378.41 0.13 377.91 0.25 377.31 0.25L377.31 0.25Q376.26 0.25 375.71-0.18 375.16-0.6 375.16-1.55L375.16-1.55 375.16-13.2ZM379.16-11.25L375.16-11.25 375.16-23Q375.41-23.1 375.93-23.23 376.46-23.35 377.06-23.35L377.06-23.35Q378.11-23.35 378.63-22.93 379.16-22.5 379.16-21.5L379.16-21.5 379.16-11.25ZM390.96-18.8L390.96-10.9 386.96-10.9 386.96-18.5Q386.96-19.65 387.38-20.33 387.81-21 388.81-21.65L388.81-21.65Q390.11-22.5 392.36-23.13 394.61-23.75 397.36-23.75L397.36-23.75Q401.36-23.75 401.36-21.75L401.36-21.75Q401.36-21.25 401.21-20.83 401.06-20.4 400.81-20.1L400.81-20.1Q400.31-20.2 399.51-20.3 398.71-20.4 397.91-20.4L397.91-20.4Q395.61-20.4 393.86-19.93 392.11-19.45 390.96-18.8L390.96-18.8ZM386.96-13.2L390.96-12.6 390.96-0.1Q390.71 0 390.21 0.13 389.71 0.25 389.11 0.25L389.11 0.25Q388.06 0.25 387.51-0.18 386.96-0.6 386.96-1.55L386.96-1.55 386.96-13.2ZM414.3-2.6L414.3-2.6Q416.4-2.6 417.78-3.03 419.15-3.45 419.75-3.85L419.75-3.85 419.75-11.1 413.55-10.45Q410.95-10.25 409.7-9.3 408.45-8.35 408.45-6.55L408.45-6.55Q408.45-4.7 409.93-3.65 411.4-2.6 414.3-2.6ZM414.25-23.75L414.25-23.75Q418.6-23.75 421.15-21.8 423.7-19.85 423.7-15.65L423.7-15.65 423.7-3.8Q423.7-2.7 423.28-2.13 422.85-1.55 422-1.05L422-1.05Q420.8-0.4 418.8 0.15 416.8 0.7 414.3 0.7L414.3 0.7Q409.6 0.7 407.03-1.15 404.45-3 404.45-6.5L404.45-6.5Q404.45-9.75 406.63-11.48 408.8-13.2 412.65-13.55L412.65-13.55 419.75-14.25 419.75-15.65Q419.75-18.15 418.25-19.3 416.75-20.45 414.2-20.45L414.2-20.45Q412.15-20.45 410.28-19.85 408.4-19.25 406.95-18.5L406.95-18.5Q406.55-18.85 406.23-19.33 405.9-19.8 405.9-20.3L405.9-20.3Q405.9-21.6 407.35-22.3L407.35-22.3Q408.7-23 410.48-23.38 412.25-23.75 414.25-23.75ZM440.65-30.4L440.65-30.4Q440.65-31.45 441.4-32.18 442.15-32.9 443.25-32.9L443.25-32.9Q444.4-32.9 445.1-32.18 445.8-31.45 445.8-30.4L445.8-30.4Q445.8-29.35 445.1-28.63 444.4-27.9 443.25-27.9L443.25-27.9Q442.15-27.9 441.4-28.63 440.65-29.35 440.65-30.4ZM441.25-13.2L445.25-13.2 445.25-0.1Q445 0 444.5 0.13 444 0.25 443.4 0.25L443.4 0.25Q442.35 0.25 441.8-0.18 441.25-0.6 441.25-1.55L441.25-1.55 441.25-13.2ZM445.25-11.25L441.25-11.25 441.25-23Q441.5-23.1 442.02-23.23 442.55-23.35 443.15-23.35L443.15-23.35Q444.2-23.35 444.72-22.93 445.25-22.5 445.25-21.5L445.25-21.5 445.25-11.25ZM468.8-3.95L468.8-20.75 472.8-20.8 472.8-3.8Q472.8-2.85 472.37-2.27 471.95-1.7 471.05-1.15L471.05-1.15Q470.05-0.5 468.2 0.08 466.35 0.65 463.95 0.65L463.95 0.65Q460.35 0.65 457.6-0.6 454.85-1.85 453.3-4.53 451.75-7.2 451.75-11.45L451.75-11.45Q451.75-15.8 453.27-18.5 454.8-21.2 457.4-22.48 460-23.75 463.1-23.75L463.1-23.75Q465.05-23.75 466.8-23.2 468.55-22.65 469.55-21.85L469.55-21.85 469.55-18.15Q468.6-19.1 467.07-19.78 465.55-20.45 463.5-20.45L463.5-20.45Q461.45-20.45 459.7-19.58 457.95-18.7 456.9-16.7 455.85-14.7 455.85-11.35L455.85-11.35Q455.85-6.8 458.05-4.73 460.25-2.65 463.9-2.65L463.9-2.65Q465.65-2.65 466.77-3.03 467.9-3.4 468.8-3.95L468.8-3.95ZM472.8-19.8L468.8-19.75 468.8-32.4Q469.05-32.5 469.57-32.63 470.1-32.75 470.65-32.75L470.65-32.75Q471.75-32.75 472.27-32.33 472.8-31.9 472.8-30.95L472.8-30.95 472.8-19.8ZM481.84-9L481.64-12.15 496.74-14.2Q496.54-16.95 494.84-18.73 493.14-20.5 490.14-20.5L490.14-20.5Q487.04-20.5 485.02-18.28 482.99-16.05 482.99-11.9L482.99-11.9 482.99-10.8Q483.34-6.8 485.62-4.73 487.89-2.65 491.84-2.65L491.84-2.65Q493.94-2.65 495.64-3.35 497.34-4.05 498.34-4.85L498.34-4.85Q498.89-4.5 499.22-4.03 499.54-3.55 499.54-2.95L499.54-2.95Q499.54-2 498.47-1.18 497.39-0.35 495.62 0.15 493.84 0.65 491.64 0.65L491.64 0.65Q487.79 0.65 484.97-0.75 482.14-2.15 480.62-4.93 479.09-7.7 479.09-11.7L479.09-11.7Q479.09-14.55 479.92-16.78 480.74-19 482.22-20.55 483.69-22.1 485.74-22.93 487.79-23.75 490.19-23.75L490.19-23.75Q493.24-23.75 495.57-22.45 497.89-21.15 499.22-18.82 500.54-16.5 500.54-13.5L500.54-13.5Q500.54-12.4 500.04-11.93 499.54-11.45 498.64-11.35L498.64-11.35 481.84-9ZM514.59-2.6L514.59-2.6Q516.69-2.6 518.07-3.03 519.44-3.45 520.04-3.85L520.04-3.85 520.04-11.1 513.84-10.45Q511.24-10.25 509.99-9.3 508.74-8.35 508.74-6.55L508.74-6.55Q508.74-4.7 510.22-3.65 511.69-2.6 514.59-2.6ZM514.54-23.75L514.54-23.75Q518.89-23.75 521.44-21.8 523.99-19.85 523.99-15.65L523.99-15.65 523.99-3.8Q523.99-2.7 523.57-2.13 523.14-1.55 522.29-1.05L522.29-1.05Q521.09-0.4 519.09 0.15 517.09 0.7 514.59 0.7L514.59 0.7Q509.89 0.7 507.32-1.15 504.74-3 504.74-6.5L504.74-6.5Q504.74-9.75 506.92-11.48 509.09-13.2 512.94-13.55L512.94-13.55 520.04-14.25 520.04-15.65Q520.04-18.15 518.54-19.3 517.04-20.45 514.49-20.45L514.49-20.45Q512.44-20.45 510.57-19.85 508.69-19.25 507.24-18.5L507.24-18.5Q506.84-18.85 506.52-19.33 506.19-19.8 506.19-20.3L506.19-20.3Q506.19-21.6 507.64-22.3L507.64-22.3Q508.99-23 510.77-23.38 512.54-23.75 514.54-23.75ZM531.69-13.2L535.69-12.6 535.69-0.1Q535.44 0 534.94 0.13 534.44 0.25 533.84 0.25L533.84 0.25Q532.79 0.25 532.24-0.18 531.69-0.6 531.69-1.55L531.69-1.55 531.69-13.2ZM535.69-10.7L531.69-11.25 531.69-32.4Q531.94-32.5 532.46-32.63 532.99-32.75 533.54-32.75L533.54-32.75Q534.64-32.75 535.16-32.33 535.69-31.9 535.69-30.95L535.69-30.95 535.69-10.7Z" opacity="1" transform="matrix(1,0,0,1,0,0)" fill="#ffffff" class="slogan-text-1" data-fill-palette-color="quaternary" id="text-1"></path></svg></g></svg></g></svg></g></svg></g><g transform="matrix(1,0,0,1,76.54409656674126,0)"><svg viewBox="0 0 60.07024809367463 60.07024809367463" height="60.07024809367463" width="60.07024809367463"><g><svg xmlns="http://www.w3.org/2000/svg" xmlns:xlink="http://www.w3.org/1999/xlink" version="1.1" x="0" y="0" viewBox="5 5 90 90" style="enable-background:new 0 0 100 100;" xml:space="preserve" height="60.07024809367463" width="60.07024809367463" class="icon-icon-0" data-fill-palette-color="quaternary" id="icon-0"><g fill="#ffffff" data-fill-palette-color="quaternary"><path d="M53.9 47H8C6.3 47 5 48.3 5 50S6.3 53 8 53H9.8L11.5 80.1C11.6 88.3 18.2 95 26.5 95H35.5C43.7 95 50.4 88.3 50.5 80.1L52 53H53.8C55.5 53 56.8 51.7 56.8 50 56.9 48.3 55.5 47 53.9 47M44.4 79.8V80C44.4 85 40.4 89 35.4 89H26.4C21.5 89 17.4 85 17.4 80L15.7 53H46z" fill="#ffffff" data-fill-palette-color="quaternary"></path><path d="M13.2 43C14.3 43 15.2 42.1 15.2 41 15.2 35.5 19.7 31 25.2 31H37.2C42.7 31 47.2 35.5 47.2 41 47.2 42.1 48.1 43 49.2 43S51.2 42.1 51.2 41C51.2 33.3 44.9 27 37.2 27H25.2C17.5 27 11.2 33.3 11.2 41 11.2 42.1 12.1 43 13.2 43" fill="#ffffff" data-fill-palette-color="quaternary"></path><path d="M63.1 71H89C90.1 71 91 70.1 91 69S90.1 67 89 67H79V8C79 6.3 77.7 5 76 5S73 6.3 73 8V67H63C61.9 67 61 67.9 61 69S62 71 63.1 71" fill="#ffffff" data-fill-palette-color="quaternary"></path><path d="M85.5 74H66.6C61.4 74 57.1 78.3 57.1 83.5V90C57.1 92.8 59.3 95 62.1 95H90C92.7 95 95 92.8 95 90V83.5C95 78.3 90.8 74 85.5 74M89 89H63.1V83.5C63.1 81.6 64.7 80 66.6 80H85.5C87.4 80 89 81.6 89 83.5z" fill="#ffffff" data-fill-palette-color="quaternary"></path></g></svg></g></svg></g><g></g></svg></g></svg></g></svg></g></svg></g><defs></defs></svg><rect width="342.85155851775386" height="342.85155851775386" fill="none" stroke="none" visibility="hidden"></rect></g></svg></g></svg>